<?xml version="1.0" standalone="no"?> <!DOCTYPE svg PUBLIC "-//W3C//DTD SVG 1.0//EN" "http://www.w3.org/TR/2001/REC-SVG-20010904/DTD/svg10.dtd" > <svg xmlns="http://www.w3.org/2000/svg" width="100%" height="100%">
<defs >
<font id="alphabold" horiz-adv-x="1165" ><font-face
    font-family="DINPro-Bold"
    units-per-em="2048"
    panose-1="2 0 5 3 3 0 0 2 0 4"
    ascent="2132"
    descent="-485"
    alphabetic="0" />
<missing-glyph horiz-adv-x="1173" d="M150 0V1458H1024V0H150ZM328 178H846V1280H328V178Z" />
<glyph unicode=" " glyph-name="space" horiz-adv-x="475" />
<glyph unicode="!" glyph-name="exclam" horiz-adv-x="710" d="M559 1458L492 457H295L229 1458H559ZM547 0H242V303H547V0Z" />
<glyph unicode="&quot;" glyph-name="quotedbl" horiz-adv-x="950" d="M389 1026H139V1458H389V1026ZM809 1026H561V1458H809V1026Z" />
<glyph unicode="#" glyph-name="numbersign" horiz-adv-x="1415" d="M1317 860H1135L1102 639H1243V389H1061L999 0H719L782 389H545L483 0H203L264 389H123V639H305L338 860H195V1108H377L434 1470H715L657 1108H895L952 1470H1231L1176 1108H1317V860ZM854 860H618L584
639H821L854 860Z" />
<glyph unicode="$" glyph-name="dollar" horiz-adv-x="1267" d="M1169 430Q1169 248 1048 134T729 -4V-233H522V-12Q369 -7 253 37T39 180L223 365Q339 249 549 242V612L483 621Q299 645 201 743Q96 848 96 1028Q96 1207 210 1326T522 1466V1651H729V1468Q854
1460 952 1420T1133 1300L952 1122Q866 1207 700 1221V864L778 852Q966 822 1057 737Q1169 632 1169 430ZM891 422Q891 503 846 545Q827 563 800 574T756 589T700 598V246Q792 257 841 302T891 422ZM549 877V1219Q463 1207 417 1158T371 1038Q371 974 414 934Q460
890 549 877Z" />
<glyph unicode="%" glyph-name="percent" horiz-adv-x="1736" d="M1630 268Q1630 136 1545 62T1333 -12Q1205 -12 1121 61T1036 268V471Q1036 604 1120 678T1333 752Q1459 752 1544 678T1630 471V268ZM700 987Q700 855 615 781T403 707T191 781T106 987V1190Q106
1322 191 1396T403 1470T615 1396T700 1190V987ZM1319 1458L629 0H420L1110 1458H1319ZM1438 276V463Q1438 521 1411 550T1333 580Q1229 580 1229 463V276Q1229 160 1333 160Q1383 160 1410 189T1438 276ZM508 995V1182Q508 1240 481 1269T403 1298Q299 1298 299
1182V995Q299 938 326 909T403 879T480 908T508 995Z" />
<glyph unicode="&amp;" glyph-name="ampersand" horiz-adv-x="1476" d="M1425 0H1087L981 127Q901 65 851 40Q743 -12 604 -12Q367 -12 245 104T123 430Q123 497 145 557T207 665T289 749T385 821Q355 856 336 880T292 946T253 1034T240 1130Q240 1282 344 1376T629
1470Q798 1470 899 1374T1001 1126Q1001 1046 963 986T852 872Q784 821 748 797L993 506Q1061 597 1067 762H1319Q1311 615 1275 504T1163 309L1425 0ZM819 315L528 657Q453 605 417 556T381 434Q381 344 444 287T602 229Q721 229 819 315ZM750 1124Q750 1176 718
1209T629 1243Q571 1243 540 1210T508 1124Q508 1099 523 1069T554 1020T604 961L666 1001Q750 1060 750 1124Z" />
<glyph unicode="&apos;" glyph-name="quotesingle" horiz-adv-x="530" d="M391 1026H139V1458H391V1026Z" />
<glyph unicode="(" glyph-name="parenleft" horiz-adv-x="688" d="M575 -14L397 -193Q394 -190 375 -171T352 -148T332 -126T310 -103T290 -81T269 -57T252 -34T233 -8T217 18Q164 110 164 283V1176Q164 1348 217 1440Q227 1457 237 1472T263 1506T285 1534T313
1565T339 1592T369 1623T397 1651L575 1473Q573 1470 558 1456T541 1439T528 1424T513 1408T500 1393T486 1375T474 1357T461 1335Q430 1280 430 1163V295Q430 178 461 123Q478 95 498 70T529 33T575 -14Z" />
<glyph unicode=")" glyph-name="parenright" horiz-adv-x="688" d="M524 283Q524 110 471 18Q463 5 455 -7T437 -33T419 -56T398 -81T379 -102T357 -126T336 -147T313 -171T291 -193L111 -12Q117 -6 130 7T149 26T165 42T181 60T195 78T211 99T225 123Q256 178
256 295V1163Q256 1280 225 1335Q216 1350 207 1363T192 1385T173 1407T155 1426T133 1448T111 1470L291 1651Q296 1645 315 1626T341 1600T364 1576T389 1550T410 1525T433 1497T452 1470T471 1440Q524 1348 524 1176V283Z" />
<glyph unicode="*" glyph-name="asterisk" horiz-adv-x="1011" d="M901 942L807 780L592 915L600 659H412L422 915L205 780L113 942L338 1061L113 1180L205 1343L422 1206L412 1462H600L592 1206L807 1343L901 1180L674 1061L901 942Z" />
<glyph unicode="+" glyph-name="plus" horiz-adv-x="1112" d="M1010 442H682V115H432V442H102V692H432V1020H682V692H1010V442Z" />
<glyph unicode="," glyph-name="comma" horiz-adv-x="571" d="M432 -113L139 -338V291H432V-113Z" />
<glyph unicode="-" glyph-name="hyphen" horiz-adv-x="872" d="M752 461H121V709H752V461Z" />
<glyph unicode="." glyph-name="period" horiz-adv-x="583" d="M444 0H139V303H444V0Z" />
<glyph unicode="/" glyph-name="slash" horiz-adv-x="825" d="M834 1610L250 -152H0L584 1610H834Z" />
<glyph unicode="0" glyph-name="zero" horiz-adv-x="1112" d="M999 422Q999 320 964 237T867 100T727 17T557 -12T387 17T246 100T149 237T113 422V1036Q113 1138 149 1221T246 1358T387 1441T557 1470T726 1441T867 1358T963 1221T999 1036V422ZM733 424V1032Q733
1123 685 1177T557 1231T429 1177T379 1032V424Q379 333 428 280T557 227Q637 227 685 280T733 424Z" />
<glyph unicode="1" glyph-name="one" horiz-adv-x="1112" d="M774 0H508V1171L211 913V1200L508 1458H774V0Z" />
<glyph unicode="2" glyph-name="two" horiz-adv-x="1112" d="M1008 0H121V240L666 872Q707 921 724 960T741 1049Q741 1132 695 1181T565 1231Q489 1231 438 1187T387 1044H121Q121 1174 180 1272T339 1420T565 1470Q761 1470 884 1356T1008 1047Q1008 979 988
921T939 822T852 713L444 240H1008V0Z" />
<glyph unicode="3" glyph-name="three" horiz-adv-x="1112" d="M1014 422Q1014 316 977 232T876 96T729 16T551 -12Q478 -12 412 3T286 51T183 134T113 256T86 418H352Q355 324 411 276T551 227Q639 227 693 280T748 430Q748 522 694 576T543 631H504V862H543Q635
862 681 912T727 1044Q727 1132 676 1181T549 1231T423 1184T369 1055H102Q107 1246 233 1358T549 1470Q743 1470 868 1353T993 1053Q993 842 825 754Q1014 653 1014 422Z" />
<glyph unicode="4" glyph-name="four" horiz-adv-x="1112" d="M1049 207H915V0H659V207H63V459L563 1458H854L354 459H659V731H915V459H1049V207Z" />
<glyph unicode="5" glyph-name="five" horiz-adv-x="1112" d="M1012 492Q1012 359 985 271T883 106Q763 -12 561 -12Q454 -12 371 20T236 104Q174 166 149 239T117 408H383Q405 227 561 227Q640 227 688 274Q745 332 745 492Q745 622 703 688T567 754Q493 754
451 720T391 635H147V1458H979V1219H389V905Q421 936 480 957T608 979Q781 979 881 881Q959 802 985 708T1012 492Z" />
<glyph unicode="6" glyph-name="six" horiz-adv-x="1112" d="M1008 442Q1008 302 948 198T786 41T553 -12Q353 -12 226 108T98 438Q98 500 117 571T158 693T221 827L528 1458H819L516 856Q561 874 625 874Q699 874 767 844T890 760T976 623T1008 442ZM741 440Q741
537 690 595T553 653Q469 653 417 596T365 440T417 284T553 227T689 284T741 440Z" />
<glyph unicode="7" glyph-name="seven" horiz-adv-x="1112" d="M1030 1219L557 0H268L741 1219H356V989H102V1458H1030V1219Z" />
<glyph unicode="8" glyph-name="eight" horiz-adv-x="1112" d="M1024 424Q1024 287 961 187T793 37T557 -12T322 37T154 186T90 424Q90 628 272 752Q109 866 109 1055Q109 1243 238 1356T557 1470T875 1357T1004 1055T840 752Q1024 628 1024 424ZM758 343T758
428T700 572T557 631T414 572T356 428T414 285T557 227T700 285ZM737 1047Q737 1126 686 1178T557 1231T427 1178T375 1047Q375 967 427 915T557 862Q636 862 686 914T737 1047Z" />
<glyph unicode="9" glyph-name="nine" horiz-adv-x="1112" d="M1014 1020Q1014 930 984 842T893 631L584 0H295L598 602Q553 584 489 584Q415 584 346 614T223 698T137 835T104 1016Q104 1226 232 1348T559 1470Q759 1470 886 1351T1014 1020ZM748 919T748 1018T696
1174T559 1231Q476 1231 424 1174T371 1018Q371 921 422 863T559 805Q643 805 695 862Z" />
<glyph unicode=":" glyph-name="colon" horiz-adv-x="632" d="M494 555H190V858H494V555ZM494 0H190V303H494V0Z" />
<glyph unicode=";" glyph-name="semicolon" horiz-adv-x="632" d="M487 -113L197 -338V291H487V-113ZM494 555H190V858H494V555Z" />
<glyph unicode="&lt;" glyph-name="less" horiz-adv-x="1112" d="M973 86L141 469V700L973 1083V803L479 584L973 367V86Z" />
<glyph unicode="=" glyph-name="equal" horiz-adv-x="1112" d="M1010 682H102V932H1010V682ZM1010 238H102V487H1010V238Z" />
<glyph unicode="&gt;" glyph-name="greater" horiz-adv-x="1112" d="M973 469L141 86V367L635 584L141 803V1083L973 700V469Z" />
<glyph unicode="?" glyph-name="question" horiz-adv-x="1071" d="M997 1061Q997 990 972 930T897 805L745 604Q709 557 709 500V457H442V518Q442 582 460 629T520 731L672 926Q731 1003 731 1063Q731 1136 686 1183T565 1231Q487 1231 444 1183T401 1061H135Q135
1185 193 1279T349 1421T565 1470Q683 1470 780 1423T937 1282T997 1061ZM717 0H434V272H717V0Z" />
<glyph unicode="@" glyph-name="at" horiz-adv-x="1552" d="M1434 -6L1186 0V94Q1135 39 1079 14T940 -12Q778 -12 682 90Q623 153 605 237T586 473Q586 622 604 705T680 852Q773 956 938 956Q1089 956 1180 856V948Q1180 1085 1108 1157T903 1229H649Q517 1229
444 1157Q402 1115 388 1067T373 948V356Q373 281 392 240T463 154L279 -31Q188 50 153 129T117 342V954Q117 1084 146 1178T244 1341T405 1437T629 1466H924Q1052 1466 1146 1438T1309 1341Q1377 1273 1405 1180T1434 954V-6ZM1180 343T1180 473T1142 669T1010
735Q917 735 880 669T842 473T879 276T1010 209T1141 276Z" />
<glyph unicode="A" glyph-name="A" horiz-adv-x="1306" d="M1296 0H999L913 258H395L307 0H10L541 1458H764L1296 0ZM838 498L659 1028L475 498H838Z" />
<glyph unicode="B" glyph-name="B" horiz-adv-x="1347" d="M1227 420Q1227 220 1104 110T780 0H170V1458H756Q967 1458 1086 1348T1206 1049Q1206 939 1150 859T1026 748Q1063 731 1095 706T1158 643T1208 547T1227 420ZM942 356T942 434T894 562T752 612H455V254H752Q844
254 893 305ZM922 1036Q922 1113 872 1158T733 1204H455V868H733Q822 868 872 914T922 1036Z" />
<glyph unicode="C" glyph-name="C" horiz-adv-x="1269" d="M1194 449Q1158 229 1014 109T657 -12Q424 -12 264 147Q171 241 145 367Q121 490 121 729Q121 969 145 1092Q170 1216 264 1311Q424 1470 657 1470Q871 1470 1014 1350T1194 1010H905Q854 1217 659 1217Q541
1217 477 1141Q433 1093 420 1017T406 729T419 442T477 317Q540 242 659 242Q854 242 905 449H1194Z" />
<glyph unicode="D" glyph-name="D" horiz-adv-x="1349" d="M1229 751T1229 735T1229 671T1230 604T1228 542T1225 477T1217 417T1204 356T1186 300T1160 242T1125 191T1081 139Q942 0 696 0H170V1458H696Q942 1458 1081 1319Q1105 1295 1125 1268T1159 1218T1185
1161T1204 1107T1216 1047T1224 989T1228 926T1229 865T1230 800ZM944 735Q944 910 933 988T883 1114Q810 1204 670 1204H455V254H670Q808 254 883 344Q921 391 932 474T944 735Z" />
<glyph unicode="E" glyph-name="E" horiz-adv-x="1239" d="M1130 0H170V1458H1130V1204H455V862H1030V608H455V254H1130V0Z" />
<glyph unicode="F" glyph-name="F" horiz-adv-x="1208" d="M1130 1204H455V846H1030V592H455V0H170V1458H1130V1204Z" />
<glyph unicode="G" glyph-name="G" horiz-adv-x="1304" d="M1208 598Q1208 438 1176 336T1069 154Q906 -12 657 -12Q424 -12 264 147Q171 241 145 367Q121 490 121 729Q121 969 145 1092Q170 1216 264 1311Q424 1470 657 1470Q778 1470 877 1433T1042 1332T1150
1184T1206 1004H920Q867 1217 657 1217Q544 1217 475 1139Q433 1085 420 1011T406 729Q406 582 412 508T431 393T475 317Q538 242 657 242Q785 242 860 324Q926 399 926 518V573H657V811H1208V598Z" />
<glyph unicode="H" glyph-name="H" horiz-adv-x="1402" d="M1233 0H948V610H455V0H170V1458H455V862H948V1458H1233V0Z" />
<glyph unicode="I" glyph-name="I" horiz-adv-x="624" d="M455 0H170V1458H455V0Z" />
<glyph unicode="J" glyph-name="J" horiz-adv-x="1046" d="M895 479Q895 362 853 268T739 113T576 20T381 -12Q262 -12 175 22T6 137L195 324Q236 282 276 262T381 242Q488 242 549 305T610 492V1458H895V479Z" />
<glyph unicode="K" glyph-name="K" horiz-adv-x="1361" d="M1350 0H1018L643 664L455 438V0H170V1458H455V823L969 1458H1315L831 879L1350 0Z" />
<glyph unicode="L" glyph-name="L" horiz-adv-x="1177" d="M1116 0H170V1458H455V254H1116V0Z" />
<glyph unicode="M" glyph-name="M" horiz-adv-x="1660" d="M1491 0H1206V850L928 297H735L455 850V0H170V1458H451L831 670L1210 1458H1491V0Z" />
<glyph unicode="N" glyph-name="N" horiz-adv-x="1456" d="M1286 0H1032L455 895V0H170V1458H424L1001 565V1458H1286V0Z" />
<glyph unicode="O" glyph-name="O" horiz-adv-x="1318" d="M1198 815T1198 729T1198 606T1194 501T1181 397T1156 310T1115 222T1053 147Q892 -12 659 -12Q425 -12 264 147Q222 189 194 240T152 335T130 451T122 569T121 709Q121 722 121 729Q121 950 133 1033Q158
1204 264 1311Q425 1470 659 1470Q892 1470 1053 1311Q1089 1275 1114 1237T1156 1148T1181 1062T1193 957T1197 852ZM913 729Q913 935 899 1013T842 1139Q774 1217 659 1217Q543 1217 475 1139Q433 1092 420 1014T406 729T419 444T475 319Q542 242 659 242Q775
242 842 319Q884 367 898 445T913 729Z" />
<glyph unicode="P" glyph-name="P" horiz-adv-x="1286" d="M1217 1097T1217 1004T1184 829T1090 684T937 585T735 549H455V0H170V1458H735Q845 1458 937 1422T1089 1324T1183 1180ZM932 1004Q932 1093 875 1148T721 1204H455V805H721Q817 805 874 859T932 1004Z" />
<glyph unicode="Q" glyph-name="Q" horiz-adv-x="1316" d="M1233 88L1083 -61L954 68Q833 -12 659 -12Q425 -12 264 147Q222 189 194 240T152 335T130 451T122 569T121 709Q121 722 121 729Q121 950 133 1033Q158 1204 264 1311Q425 1470 659 1470Q892 1470 1053
1311Q1089 1275 1114 1237T1156 1148T1181 1062T1193 957T1197 852T1198 729Q1198 618 1197 570T1188 445T1161 315T1108 213L1233 88ZM913 729Q913 935 899 1013T842 1139Q774 1217 659 1217Q543 1217 475 1139Q433 1092 420 1014T406 729T419 444T475 319Q542
242 659 242Q715 242 754 268L627 393L778 543L887 434Q913 510 913 729Z" />
<glyph unicode="R" glyph-name="R" horiz-adv-x="1339" d="M1274 0H944L659 582H455V0H170V1458H741Q850 1458 940 1423T1089 1326T1181 1184T1214 1012Q1214 867 1139 769T948 629L1274 0ZM930 927T930 1012T873 1150T723 1204H455V819H723Q816 819 873 873Z" />
<glyph unicode="S" glyph-name="S" horiz-adv-x="1210" d="M1112 430Q1112 224 960 106T571 -12Q398 -12 270 31T39 180L223 365Q345 242 575 242Q701 242 767 288T834 422Q834 502 788 545Q747 583 659 596L483 621Q297 648 201 741Q96 846 96 1028Q96 1226 233
1348T604 1470Q757 1470 869 1430T1075 1300L895 1122Q833 1182 759 1202T596 1223Q487 1223 429 1171T371 1038Q371 974 414 934Q461 889 549 877L721 852Q907 827 999 739Q1112 633 1112 430Z" />
<glyph unicode="T" glyph-name="T" horiz-adv-x="1169" d="M1108 1204H727V0H442V1204H61V1458H1108V1204Z" />
<glyph unicode="U" glyph-name="U" horiz-adv-x="1368" d="M1221 500Q1221 349 1149 231T955 51T684 -12T413 50T219 231T147 500V1458H432V510Q432 385 500 314T684 242T869 313T938 510V1458H1221V500Z" />
<glyph unicode="V" glyph-name="V" horiz-adv-x="1189" d="M1184 1458L700 0H487L6 1458H301L594 508L887 1458H1184Z" />
<glyph unicode="W" glyph-name="W" horiz-adv-x="1816" d="M1804 1458L1413 0H1176L907 885L639 0H401L12 1458H309L535 539L801 1458H1014L1280 539L1507 1458H1804Z" />
<glyph unicode="X" glyph-name="X" horiz-adv-x="1234" d="M1225 0H899L616 508L336 0H10L463 748L39 1458H362L616 987L872 1458H1194L770 748L1225 0Z" />
<glyph unicode="Y" glyph-name="Y" horiz-adv-x="1171" d="M1165 1458L727 598V0H444V598L6 1458H315L588 870L856 1458H1165Z" />
<glyph unicode="Z" glyph-name="Z" horiz-adv-x="1122" d="M1040 0H82V229L705 1204H109V1458H1040V1233L416 254H1040V0Z" />
<glyph unicode="[" glyph-name="bracketleft" horiz-adv-x="774" d="M690 -152H164V1610H690V1370H430V88H690V-152Z" />
<glyph unicode="\" glyph-name="backslash" horiz-adv-x="825" d="M825 -152H575L0 1583H250L825 -152Z" />
<glyph unicode="]" glyph-name="bracketright" horiz-adv-x="774" d="M612 -152H86V86H346V1372H86V1610H612V-152Z" />
<glyph unicode="^" glyph-name="asciicircum" horiz-adv-x="1232" d="M1104 797H825L616 1182L408 797H129L494 1473H739L1104 797Z" />
<glyph unicode="_" glyph-name="underscore" horiz-adv-x="1232" d="M1233 -365H0V-186H1233V-365Z" />
<glyph unicode="`" glyph-name="grave" horiz-adv-x="1024" d="M625 1237H446L213 1585H494L625 1237Z" />
<glyph unicode="a" glyph-name="a" horiz-adv-x="1093" d="M956 0H696V92Q642 37 583 14T434 -10Q255 -10 162 84Q74 174 74 324Q74 459 167 546T438 633H690V686Q690 774 644 814T492 854Q417 854 374 835T287 766L117 932Q193 1016 279 1047T502 1079Q727 1079
841 984T956 702V0ZM690 393V451H479Q407 451 369 419T330 330T368 240T483 207Q545 207 581 216T651 258Q690 294 690 393Z" />
<glyph unicode="b" glyph-name="b" horiz-adv-x="1146" d="M1042 535Q1042 456 1040 409T1028 293T996 174T934 84Q889 39 820 14T674 -12Q588 -12 525 14T408 100V0H150V1458H416V973Q466 1030 528 1054T674 1079Q751 1079 820 1054T934 983Q965 952 986 909T1018
827T1034 729T1041 634T1042 535ZM776 535Q776 593 773 634T759 716T729 783T676 824T596 840T516 825T464 784T434 717T420 634T416 535Q416 476 419 435T433 352T463 285T516 243T596 227T676 243T728 284T758 352T772 435T776 535Z" />
<glyph unicode="c" glyph-name="c" horiz-adv-x="983" d="M926 133Q785 -12 573 -12Q504 -12 441 3T314 56T202 155T126 312T96 535T125 757T202 913T313 1011T441 1064T573 1079Q787 1079 926 936L745 756Q703 801 664 820T573 840Q480 840 422 770Q362 695 362
535Q362 372 422 297Q480 227 573 227Q625 227 664 246T745 311L926 133Z" />
<glyph unicode="d" glyph-name="d" horiz-adv-x="1148" d="M999 0H739V100Q685 39 623 14T475 -12Q397 -12 327 14T213 84Q175 122 151 173T118 293T107 408T104 535Q104 597 105 634T111 729T128 826T160 909T213 983Q258 1028 327 1053T473 1079Q557 1079 620
1055T733 973V1458H999V0ZM733 477T733 535T730 634T715 717T685 783T632 824T551 840T471 825T419 784T389 717T375 634T371 535Q371 476 374 435T388 352T418 285T471 243T551 227T631 243T684 284T715 351T729 435Z" />
<glyph unicode="e" glyph-name="e" horiz-adv-x="1122" d="M1026 451H358Q358 345 420 279T592 213Q675 213 727 236T834 313L995 156Q909 69 818 29T590 -12Q510 -12 442 3T308 56T197 155T124 312T96 535Q96 792 223 935T561 1079Q706 1079 812 1013T972 832T1026
569V451ZM764 633Q761 697 739 748Q717 798 672 828T561 858Q434 858 383 748Q361 693 358 633H764Z" />
<glyph unicode="f" glyph-name="f" horiz-adv-x="700" d="M645 834H449V0H182V834H72V1036H182V1169Q182 1228 200 1281T255 1379T353 1449T494 1475H645V1249H541Q449 1249 449 1153V1036H645V834Z" />
<glyph unicode="g" glyph-name="g" horiz-adv-x="1136" d="M987 39Q987 -156 859 -279T518 -403Q390 -403 301 -373T131 -264L297 -96Q341 -140 390 -159T506 -178Q617 -178 669 -114T721 43V152Q625 45 467 45Q307 45 213 139Q144 208 124 304T104 563T124 821T213
985Q307 1079 469 1079Q554 1079 614 1054T729 967V1067H987V39ZM721 563Q721 624 715 667T692 753T638 818T545 840Q499 840 467 824T416 784T387 721T374 647T371 563T374 479T387 405T415 342T466 301T545 285Q590 285 623 301T674 341T704 405T718 479T721
563Z" />
<glyph unicode="h" glyph-name="h" d="M1028 0H762V651Q762 749 711 794T588 840T466 794T416 651V0H150V1458H416V969Q523 1079 672 1079Q842 1079 935 972T1028 690V0Z" />
<glyph unicode="i" glyph-name="i" horiz-adv-x="563" d="M416 0H150V1067H416V0ZM418 1249H145V1466H418V1249Z" />
<glyph unicode="j" glyph-name="j" horiz-adv-x="563" d="M416 -94Q416 -153 398 -206T343 -303T245 -373T104 -399H-47V-174H55Q105 -174 127 -150T150 -78V1067H416V-94ZM418 1249H145V1466H418V1249Z" />
<glyph unicode="k" glyph-name="k" horiz-adv-x="1144" d="M1120 0H791L528 444L416 317V0H150V1458H416V631L770 1067H1092L711 637L1120 0Z" />
<glyph unicode="l" glyph-name="l" horiz-adv-x="665" d="M602 0H451Q372 0 310 26T212 96T158 193T139 305V1458H406V322Q406 273 428 249T500 225H602V0Z" />
<glyph unicode="m" glyph-name="m" horiz-adv-x="1794" d="M1657 0H1391V645Q1391 746 1339 793T1214 840Q1143 840 1090 794T1036 651V0H770V645Q770 746 719 793T594 840T469 793T416 645V0H150V1067H410V969Q461 1022 531 1050T676 1079Q860 1079 958 944Q1026
1015 1102 1047T1278 1079Q1357 1079 1426 1054T1540 985Q1657 868 1657 682V0Z" />
<glyph unicode="n" glyph-name="n" horiz-adv-x="1173" d="M1036 0H770V645Q770 746 719 793T594 840T469 793T416 645V0H150V1067H410V969Q461 1023 531 1051T676 1079Q832 1079 928 985Q989 924 1012 851T1036 682V0Z" />
<glyph unicode="o" glyph-name="o" horiz-adv-x="1112" d="M1008 535Q1008 381 982 286T887 119Q763 -12 555 -12Q349 -12 225 119Q156 191 130 286T104 535Q104 686 130 781T225 948Q349 1079 555 1079Q763 1079 887 948Q956 876 982 781T1008 535ZM741 535Q741
633 730 694T680 793Q631 840 555 840Q481 840 432 793Q394 755 383 694T371 535Q371 436 382 374T432 274Q481 227 555 227Q631 227 680 274Q718 312 729 374T741 535Z" />
<glyph unicode="p" glyph-name="p" horiz-adv-x="1146" d="M1042 535Q1042 456 1040 409T1028 293T996 174T934 84Q889 39 820 14T674 -12Q590 -12 528 12T416 94V-391H150V1067H408V967Q462 1027 525 1053T674 1079Q751 1079 820 1054T934 983Q965 952 986 909T1018
827T1034 729T1041 634T1042 535ZM776 535Q776 593 773 634T759 716T729 783T676 824T596 840T516 825T464 784T434 717T420 634T416 535Q416 476 419 435T433 352T463 285T516 243T596 227T676 243T728 284T758 352T772 435T776 535Z" />
<glyph unicode="q" glyph-name="q" horiz-adv-x="1148" d="M999 -391H733V94Q683 37 620 13T473 -12Q396 -12 327 13T213 84Q175 122 151 173T118 293T107 408T104 535Q104 597 105 634T111 729T128 826T160 909T213 983Q257 1027 327 1053T475 1079Q561 1079
623 1054T739 967V1067H999V-391ZM733 477T733 535T730 634T715 717T685 783T632 824T551 840T471 825T419 784T389 717T375 634T371 535Q371 476 374 435T388 352T418 285T471 243T551 227T631 243T684 284T715 351T729 435Z" />
<glyph unicode="r" glyph-name="r" horiz-adv-x="931" d="M930 979L729 776Q695 810 665 825T588 840Q520 840 468 789T416 643V0H150V1067H410V965Q451 1014 523 1046T678 1079Q758 1079 817 1056T930 979Z" />
<glyph unicode="s" glyph-name="s" horiz-adv-x="1026" d="M952 336Q952 250 917 183T820 73T677 10T500 -12Q352 -12 245 18T45 141L219 315Q319 215 504 215Q582 215 637 242T692 326Q692 413 580 424L412 440Q260 455 180 526T100 739Q100 846 158 925T309
1041T512 1079Q646 1079 746 1051T920 954L756 788Q676 860 508 860Q432 860 394 831T356 758Q356 675 467 666L635 649Q792 634 872 554T952 336Z" />
<glyph unicode="t" glyph-name="t" horiz-adv-x="720" d="M629 0H483Q405 0 344 26T247 96T193 193T174 305V834H61V1036H174V1352H440V1036H629V834H440V322Q440 225 532 225H629V0Z" />
<glyph unicode="u" glyph-name="u" horiz-adv-x="1173" d="M1024 0H764V98Q713 44 643 16T498 -12Q340 -12 246 82Q185 143 161 216T137 385V1067H403V422Q403 321 455 274T580 227T705 274T758 422V1067H1024V0Z" />
<glyph unicode="v" glyph-name="v" horiz-adv-x="1009" d="M1001 1067L610 0H401L8 1067H289L506 408L721 1067H1001Z" />
<glyph unicode="w" glyph-name="w" horiz-adv-x="1554" d="M1546 1067L1221 0H1001L778 670L555 0H336L8 1067H291L463 408L680 1067H874L1094 408L1266 1067H1546Z" />
<glyph unicode="x" glyph-name="x" horiz-adv-x="1079" d="M1055 0H735L539 319L344 0H25L393 545L39 1067H358L539 762L721 1067H1040L686 545L1055 0Z" />
<glyph unicode="y" glyph-name="y" horiz-adv-x="1011" d="M1004 1067L547 -172Q511 -265 467 -309Q386 -391 238 -391H133V-152H195Q252 -152 280 -133T328 -55L373 76L8 1067H289L510 408L723 1067H1004Z" />
<glyph unicode="z" glyph-name="z" horiz-adv-x="978" d="M889 0H76V203L549 827H102V1067H889V864L410 240H889V0Z" />
<glyph unicode="{" glyph-name="braceleft" horiz-adv-x="935" d="M848 -152H639Q486 -152 410 -76Q324 10 324 152V449Q324 536 289 571Q250 610 182 610H88V848H182Q250 848 289 887Q324 922 324 1010V1307Q324 1449 410 1534Q486 1610 639 1610H848V1370H739Q651
1370 623 1341Q590 1307 590 1210V934Q590 892 580 858T556 804T521 768T485 745T449 729Q476 719 494 709T538 676T576 615T590 524V248Q590 151 623 117Q651 88 739 88H848V-152Z" />
<glyph unicode="|" glyph-name="bar" horiz-adv-x="716" d="M492 -152H225V1610H492V-152Z" />
<glyph unicode="}" glyph-name="braceright" horiz-adv-x="935" d="M848 610H754Q686 610 647 571Q612 536 612 449V152Q612 10 526 -76Q450 -152 297 -152H88V88H197Q285 88 313 117Q346 151 346 248V524Q346 576 359 614T398 675T441 708T487 729Q465 738 452
744T416 767T380 804T357 858T346 934V1210Q346 1307 313 1341Q285 1370 197 1370H88V1610H297Q450 1610 526 1534Q612 1449 612 1307V1010Q612 922 647 887Q686 848 754 848H848V610Z" />
<glyph unicode="~" glyph-name="asciitilde" horiz-adv-x="1241" d="M1165 575Q1067 478 993 439T827 399Q719 399 588 469Q493 518 420 518Q373 518 335 502T244 432L76 600Q173 697 246 736T412 776Q522 776 651 707Q748 657 817 657Q864 657 903 674T995 743L1165
575Z" />
</font>
</defs>
</svg>
