<?xml version="1.0" standalone="no"?> <!DOCTYPE svg PUBLIC "-//W3C//DTD SVG 1.0//EN" "http://www.w3.org/TR/2001/REC-SVG-20010904/DTD/svg10.dtd" > <svg xmlns="http://www.w3.org/2000/svg" width="100%" height="100%">
<defs >
<font id="alphalight" horiz-adv-x="1123" ><font-face
    font-family="DINPro-Light"
    units-per-em="2048"
    panose-1="2 0 5 4 4 0 0 2 0 3"
    ascent="2132"
    descent="-485"
    alphabetic="0" />
<missing-glyph horiz-adv-x="1144" d="M199 0V1458H946V0H199ZM276 78H868V1380H276V78Z" />
<glyph unicode=" " glyph-name="space" horiz-adv-x="522" />
<glyph unicode="!" glyph-name="exclam" horiz-adv-x="622" d="M391 393H291L285 1458H397L391 393ZM272 0V137H410V0H272Z" />
<glyph unicode="&quot;" glyph-name="quotedbl" horiz-adv-x="835" d="M195 1139V1458H324V1139H195ZM512 1139V1458H641V1139H512Z" />
<glyph unicode="#" glyph-name="numbersign" horiz-adv-x="1308" d="M999 895L948 582H1145V492H934L856 0H752L831 492H471L395 0H291L369 492H172V582H383L434 895H231V987H446L520 1458H627L551 987H909L983 1458H1085L1012 987H1204V895H999ZM537 895L485
582H844L895 895H537Z" />
<glyph unicode="$" glyph-name="dollar" horiz-adv-x="1202" d="M1081 391Q1081 215 962 108T635 -10V-233H543V-12Q402 -6 301 39T104 180L182 258Q270 170 350 133T543 88V692L510 696Q433 707 363 736T250 803Q135 901 135 1071Q135 1245 243 1350T543 1468V1651H635V1468Q749
1462 834 1426T1008 1313L936 1241Q869 1301 801 1334T635 1374V780L694 770Q801 750 856 731T954 674Q1081 569 1081 391ZM971 387Q971 524 891 592Q869 611 846 624T794 646T747 658T690 667T635 676V88Q792 99 881 176T971 387ZM543 1374Q402 1364 323 1285T244
1075Q244 948 319 885Q403 813 543 795V1374Z" />
<glyph unicode="%" glyph-name="percent" horiz-adv-x="1695" d="M1554 260Q1554 137 1480 62T1286 -14Q1165 -14 1091 61T1016 260V479Q1016 602 1090 678T1286 754Q1405 754 1479 678T1554 479V260ZM680 979Q680 858 605 783T412 707Q291 707 216 782T141 979V1198Q141
1321 216 1397T412 1473Q530 1473 605 1397T680 1198V979ZM1464 475Q1464 676 1286 676Q1106 676 1106 475V264Q1106 63 1286 63Q1464 63 1464 264V475ZM590 1194Q590 1395 412 1395Q231 1395 231 1194V983Q231 784 412 784Q590 784 590 983V1194ZM555 0H463L1143
1458H1235L555 0Z" />
<glyph unicode="&amp;" glyph-name="ampersand" horiz-adv-x="1527" d="M1214 0L1073 172Q1046 145 1012 119T920 61T786 8T625 -12Q423 -12 298 103T172 403Q172 468 190 524T235 622T307 705T391 776T488 844Q500 852 506 856Q468 902 447 930T398 1002T357
1091T344 1180Q344 1302 430 1386T641 1470Q764 1470 851 1385T938 1178Q938 1094 894 1032T770 915Q694 862 662 842L1079 336Q1129 410 1147 485T1165 698H1274Q1274 413 1147 254L1356 0H1214ZM569 782Q448 699 410 665Q287 557 283 421Q283 415 283 410Q283
266 377 176T623 86Q721 86 815 121T1012 248L569 782ZM829 1178Q829 1262 776 1317T641 1372Q561 1372 508 1319T455 1184Q455 1127 484 1071T598 915L631 938Q669 960 682 973Q752 1020 790 1066T829 1178Z" />
<glyph unicode="&apos;" glyph-name="quotesingle" horiz-adv-x="518" d="M195 1139V1458H324V1139H195Z" />
<glyph unicode="(" glyph-name="parenleft" horiz-adv-x="581" d="M373 -193Q329 -149 314 -134T276 -89T238 -29Q199 47 199 162V1296Q199 1411 238 1487Q253 1517 276 1546T314 1591T373 1651L444 1579Q439 1574 425 1560T405 1541T389 1524T373 1505T359 1487T345
1467T334 1446Q303 1383 303 1284V174Q303 75 334 12Q339 1 344 -8T358 -28T372 -46T389 -65T405 -82T424 -102T444 -121L373 -193Z" />
<glyph unicode=")" glyph-name="parenright" horiz-adv-x="581" d="M383 162Q383 42 344 -29Q339 -38 334 -47T324 -64T312 -80T301 -95T288 -110T275 -125T260 -141T245 -157T227 -175T209 -193L133 -117Q138 -112 152 -98T171 -79T188 -62T205 -43T219 -25T233
-5T244 16Q272 71 272 174V1284Q272 1387 244 1442Q238 1454 230 1467T216 1488T196 1511T178 1530T155 1553T133 1575L209 1651Q291 1568 314 1535Q331 1512 344 1487Q383 1416 383 1296V162Z" />
<glyph unicode="*" glyph-name="asterisk" horiz-adv-x="956" d="M764 897L518 1047L524 758H432L438 1047L193 897L147 975L399 1114L147 1253L193 1331L438 1182L432 1470H524L518 1182L764 1331L809 1253L557 1114L809 975L764 897Z" />
<glyph unicode="+" glyph-name="plus" horiz-adv-x="1052" d="M575 492V121H479V492H109V588H479V956H575V588H944V492H575Z" />
<glyph unicode="," glyph-name="comma" horiz-adv-x="528" d="M195 -279V139H334V-139L195 -279Z" />
<glyph unicode="-" glyph-name="hyphen" horiz-adv-x="872" d="M168 492V588H705V492H168Z" />
<glyph unicode="." glyph-name="period" horiz-adv-x="540" d="M195 0V152H346V0H195Z" />
<glyph unicode="/" glyph-name="slash" horiz-adv-x="692" d="M109 -152H0L584 1610H692L109 -152Z" />
<glyph unicode="0" glyph-name="zero" horiz-adv-x="1052" d="M909 377Q909 206 802 97T526 -12Q359 -12 251 97T143 377V1081Q143 1252 250 1361T526 1470Q695 1470 802 1361T909 1081V377ZM805 1071Q805 1205 732 1291T526 1378Q394 1378 321 1292T248 1071V387Q248
253 321 167T526 80Q659 80 732 166T805 387V1071Z" />
<glyph unicode="1" glyph-name="one" horiz-adv-x="1052" d="M537 0V1339L272 1106V1231L537 1458H641V0H537Z" />
<glyph unicode="2" glyph-name="two" horiz-adv-x="1052" d="M147 0V92L733 860Q815 965 815 1087Q815 1220 741 1299T535 1378Q412 1378 333 1306T254 1087H150Q150 1254 254 1362T535 1470Q709 1470 814 1365T920 1087Q920 1006 897 943T819 807L272 92H920V0H147Z" />
<glyph unicode="3" glyph-name="three" horiz-adv-x="1052" d="M915 389Q915 199 800 93T502 -14Q323 -14 211 79T86 354H190Q198 259 244 195T356 105T502 78Q636 78 723 162T811 389Q811 700 494 700H469V793H494Q782 793 782 1085Q782 1224 702 1302T500 1380Q373
1380 298 1310T209 1114H104Q121 1283 229 1378T500 1473Q673 1473 780 1367T887 1085Q887 843 680 754Q915 674 915 389Z" />
<glyph unicode="4" glyph-name="four" horiz-adv-x="1052" d="M770 240V0H666V240H88V332L625 1458H735L199 332H666V795H770V332H965V240H770Z" />
<glyph unicode="5" glyph-name="five" horiz-adv-x="1052" d="M924 477Q924 347 903 254T811 90Q707 -14 530 -14Q344 -14 250 84Q164 170 152 322H256Q274 201 339 140T530 78Q659 78 731 152Q762 183 781 221T807 308T817 389T819 477Q819 538 814 588T791 692T746
782T666 842T547 866Q446 866 376 826T283 713H190V1458H891V1366H283V850Q378 958 559 958Q717 958 805 870Q876 799 900 701T924 477Z" />
<glyph unicode="6" glyph-name="six" horiz-adv-x="1052" d="M918 412Q918 230 815 109T532 -12Q352 -12 249 101T145 397Q145 532 227 702L602 1458H707L371 784Q446 819 541 819Q714 819 816 704T918 412ZM813 403Q813 542 739 634T530 727Q401 727 326 639T250
403Q250 256 325 168T530 80T736 168T813 403Z" />
<glyph unicode="7" glyph-name="seven" horiz-adv-x="1052" d="M424 0H317L834 1366H281V1137H176V1458H940V1366L424 0Z" />
<glyph unicode="8" glyph-name="eight" horiz-adv-x="1052" d="M942 393Q942 219 823 104T526 -12Q349 -12 230 103T111 393Q111 516 172 608T342 758Q141 867 141 1090Q141 1252 249 1361T526 1470Q695 1470 803 1361T911 1090Q911 864 713 758Q942 636 942 393ZM838
259T838 393T748 618T526 709T305 618T215 393Q215 258 304 169T526 80Q659 80 748 169ZM807 962T807 1090T729 1298T526 1378T324 1298T246 1090T324 882T526 801T728 881Z" />
<glyph unicode="9" glyph-name="nine" horiz-adv-x="1052" d="M907 1061Q907 924 825 756L451 0H346L682 674Q607 639 510 639Q335 639 235 754T135 1047Q135 1165 179 1260T312 1412T520 1470Q701 1470 804 1357T907 1061ZM803 1055Q803 1202 726 1290T520 1378T316
1290T240 1055Q240 917 313 824T520 731Q649 731 726 819T803 1055Z" />
<glyph unicode=":" glyph-name="colon" horiz-adv-x="598" d="M252 0V152H403V0H252ZM252 639V791H403V639H252Z" />
<glyph unicode=";" glyph-name="semicolon" horiz-adv-x="598" d="M256 -279V139H395V-139L256 -279ZM252 639V791H403V639H252Z" />
<glyph unicode="&lt;" glyph-name="less" horiz-adv-x="1052" d="M838 160L215 489V588L838 918V805L317 539L838 272V160Z" />
<glyph unicode="=" glyph-name="equal" horiz-adv-x="1052" d="M109 334V430H944V334H109ZM109 647V743H944V647H109Z" />
<glyph unicode="&gt;" glyph-name="greater" horiz-adv-x="1052" d="M838 489L215 160V272L735 539L215 805V918L838 588V489Z" />
<glyph unicode="?" glyph-name="question" horiz-adv-x="999" d="M897 1110Q897 1043 875 988T807 866L633 610Q596 557 596 487V391H492V483Q492 541 505 581T551 668L723 922Q749 962 760 983T782 1038T793 1110Q793 1225 718 1301T530 1378Q414 1378 341 1300T268
1110H164Q164 1261 266 1365T530 1470Q687 1470 792 1367T897 1110ZM475 0V137H612V0H475Z" />
<glyph unicode="@" glyph-name="at" horiz-adv-x="1427" d="M1165 0V121Q1114 51 1046 19T881 -14Q699 -14 596 119Q548 184 528 269T508 494Q508 630 526 716T588 864Q632 929 709 965T879 1001Q1062 1001 1165 862V1044Q1165 1133 1147 1187T1081 1288Q996 1374
848 1374H578Q500 1374 446 1354T346 1288Q299 1241 281 1188T262 1044V322Q262 218 287 166T389 57L317 -14Q223 53 191 121T158 322V1038Q158 1231 270 1348Q378 1458 559 1458H866Q1043 1458 1155 1348Q1270 1233 1270 1038V0H1165ZM1165 438T1165 494T1162
594T1149 689T1119 777T1070 845T995 893T889 909Q818 909 766 884T685 822T639 726T617 615T612 494Q612 425 617 373T639 262T685 166T766 103T889 78Q949 78 995 94T1070 141T1119 210T1148 297T1161 393Z" />
<glyph unicode="A" glyph-name="A" horiz-adv-x="1232" d="M1083 0L956 354H276L150 0H31L567 1458H666L1202 0H1083ZM616 1311L311 453H922L616 1311Z" />
<glyph unicode="B" glyph-name="B" horiz-adv-x="1374" d="M1206 397Q1206 206 1091 103T778 0H225V1458H762Q948 1458 1066 1356T1184 1077Q1184 962 1123 874T956 750Q1075 708 1140 616T1206 397ZM1096 257T1096 397T1007 616T766 696H336V98H766Q917 98 1006
177ZM1073 1077Q1073 1220 983 1290T750 1360H336V795H750Q892 795 982 865T1073 1077Z" />
<glyph unicode="C" glyph-name="C" horiz-adv-x="1318" d="M1163 414Q1126 217 994 103T668 -12Q452 -12 303 137Q263 177 238 221T198 305T178 420T170 551T168 729Q168 830 169 880T173 997T185 1100T209 1180T247 1256T303 1321Q452 1470 668 1470Q864 1470
995 1356T1163 1044H1051Q1019 1197 917 1284T668 1372Q505 1372 391 1260Q317 1185 298 1083T279 729T298 376T391 199Q504 86 668 86Q815 86 919 174T1055 414H1163Z" />
<glyph unicode="D" glyph-name="D" horiz-adv-x="1388" d="M1221 757T1221 750T1221 728Q1221 647 1220 602T1212 478T1191 346T1149 234T1079 133Q946 0 715 0H225V1458H715Q946 1458 1079 1325Q1120 1284 1148 1229T1191 1127T1212 1006T1220 892T1221 772Q1221
757 1221 750ZM1110 742T1110 750T1110 773Q1110 839 1110 875T1104 974T1087 1078T1054 1167T1001 1247Q894 1360 688 1360H336V98H688Q894 98 1001 211Q1027 239 1047 276T1078 361T1097 448T1106 547T1109 638T1110 727Q1110 742 1110 750Z" />
<glyph unicode="E" glyph-name="E" horiz-adv-x="1224" d="M225 0V1458H1110V1360H336V784H995V686H336V98H1110V0H225Z" />
<glyph unicode="F" glyph-name="F" horiz-adv-x="1179" d="M336 1360V760H995V662H336V0H225V1458H1110V1360H336Z" />
<glyph unicode="G" glyph-name="G" horiz-adv-x="1333" d="M1169 508Q1169 389 1142 306T1051 156Q978 76 878 32T668 -12Q452 -12 303 137Q263 177 238 221T198 305T178 420T170 551T168 729Q168 830 169 880T173 997T185 1100T209 1180T247 1256T303 1321Q452
1470 668 1470Q859 1470 996 1353T1165 1044H1055Q1023 1196 919 1284T668 1372Q505 1372 391 1260Q317 1185 298 1083T279 729T298 376T391 199Q504 86 668 86Q755 86 835 122T971 227Q1018 287 1038 354T1059 516V647H668V745H1169V508Z" />
<glyph unicode="H" glyph-name="H" horiz-adv-x="1431" d="M1096 0V686H336V0H225V1458H336V784H1096V1458H1206V0H1096Z" />
<glyph unicode="I" glyph-name="I" horiz-adv-x="561" d="M225 0V1458H336V0H225Z" />
<glyph unicode="J" glyph-name="J" horiz-adv-x="1019" d="M815 430Q815 230 697 109T381 -12Q186 -12 61 113L137 188Q188 138 240 112T381 86Q539 86 622 180T705 453V1458H815V430Z" />
<glyph unicode="K" glyph-name="K" horiz-adv-x="1320" d="M1153 0L684 817L336 395V0H225V1458H336V547L1075 1458H1208L758 901L1284 0H1153Z" />
<glyph unicode="L" glyph-name="L" horiz-adv-x="1171" d="M225 0V1458H336V98H1110V0H225Z" />
<glyph unicode="M" glyph-name="M" horiz-adv-x="1675" d="M1339 0V1202L897 205H786L336 1202V0H225V1458H336L844 334L1339 1458H1450V0H1339Z" />
<glyph unicode="N" glyph-name="N" horiz-adv-x="1513" d="M1178 0L336 1268V0H225V1458H336L1178 195V1458H1288V0H1178Z" />
<glyph unicode="O" glyph-name="O" horiz-adv-x="1335" d="M1167 729Q1167 609 1166 552T1158 420T1137 306T1098 221T1032 137Q883 -12 668 -12Q452 -12 303 137Q263 177 238 221T198 305T178 420T170 551T168 729Q168 830 169 880T173 997T185 1100T209 1180T247
1256T303 1321Q452 1470 668 1470Q883 1470 1032 1321Q1065 1288 1088 1256T1126 1180T1149 1101T1161 998T1166 880T1167 729ZM1057 478T1057 729T1038 1082T944 1260Q830 1372 668 1372Q505 1372 391 1260Q317 1185 298 1083T279 729T298 376T391 199Q504 86
668 86Q831 86 944 199Q1019 273 1038 375Z" />
<glyph unicode="P" glyph-name="P" horiz-adv-x="1292" d="M1200 1038Q1200 843 1077 731T760 618H336V0H225V1458H760Q954 1458 1077 1347T1200 1038ZM1090 879T1090 1038T998 1278T748 1360H336V717H748Q905 717 997 798Z" />
<glyph unicode="Q" glyph-name="Q" horiz-adv-x="1333" d="M1161 -74L989 98Q850 -12 668 -12Q452 -12 303 137Q263 177 238 221T198 305T178 420T170 551T168 729Q168 830 169 880T173 997T185 1100T209 1180T247 1256T303 1321Q452 1470 668 1470Q883 1470 1032
1321Q1065 1288 1088 1256T1126 1180T1149 1101T1161 998T1166 880T1167 729Q1167 473 1151 364T1063 172L1235 0L1161 -74ZM1057 729Q1057 980 1038 1082T944 1260Q830 1372 668 1372Q505 1372 391 1260Q317 1185 298 1083T279 729T298 376T391 199Q504 86 668
86Q808 86 915 172L711 377L784 451L987 248Q1033 312 1045 410T1057 729Z" />
<glyph unicode="R" glyph-name="R" horiz-adv-x="1345" d="M1085 0L737 672H336V0H225V1458H780Q965 1458 1081 1355T1198 1067Q1198 905 1108 803T862 674L1214 0H1085ZM1087 918T1087 1065T1000 1286T766 1360H336V770H766Q913 770 1000 844Z" />
<glyph unicode="S" glyph-name="S" horiz-adv-x="1202" d="M1081 391Q1081 205 950 97T590 -12Q431 -12 319 33T104 180L182 258Q279 161 371 124T596 86Q770 86 870 165T971 387Q971 524 891 592Q847 626 807 642T680 670L510 696Q343 722 250 803Q135 898 135
1071Q135 1256 256 1363T588 1470Q720 1470 816 1433T1008 1313L936 1241Q865 1308 784 1342T582 1376Q423 1376 334 1296T244 1075Q244 948 319 885Q399 818 537 795L694 770Q794 757 851 735T954 674Q1081 569 1081 391Z" />
<glyph unicode="T" glyph-name="T" horiz-adv-x="1103" d="M606 1360V0H496V1360H61V1458H1042V1360H606Z" />
<glyph unicode="U" glyph-name="U" horiz-adv-x="1409" d="M1204 473Q1204 259 1064 124T705 -12Q485 -12 345 123T205 473V1458H315V487Q315 306 421 196T705 86Q881 86 987 196T1094 487V1458H1204V473Z" />
<glyph unicode="V" glyph-name="V" horiz-adv-x="1093" d="M594 0H500L20 1458H137L547 195L956 1458H1073L594 0Z" />
<glyph unicode="W" glyph-name="W" horiz-adv-x="1724" d="M1319 0H1206L862 1270L518 0H406L41 1458H158L465 190L805 1458H920L1260 190L1567 1458H1683L1319 0Z" />
<glyph unicode="X" glyph-name="X" horiz-adv-x="1089" d="M924 0L543 649L162 0H37L483 748L66 1458H195L543 846L893 1458H1020L602 748L1053 0H924Z" />
<glyph unicode="Y" glyph-name="Y" horiz-adv-x="1011" d="M561 604V0H451V604L20 1458H139L510 721L872 1458H991L561 604Z" />
<glyph unicode="Z" glyph-name="Z" horiz-adv-x="1144" d="M129 0V117L897 1360H160V1458H1016V1360L242 98H1016V0H129Z" />
<glyph unicode="[" glyph-name="bracketleft" horiz-adv-x="593" d="M199 -152V1610H502V1518H303V-59H502V-152H199Z" />
<glyph unicode="\" glyph-name="backslash" horiz-adv-x="692" d="M584 -152L0 1610H109L692 -152H584Z" />
<glyph unicode="]" glyph-name="bracketright" horiz-adv-x="593" d="M92 -152V-66H297V1524H92V1610H395V-152H92Z" />
<glyph unicode="^" glyph-name="asciicircum" horiz-adv-x="1052" d="M793 864L526 1360L260 864H156L479 1470H573L897 864H793Z" />
<glyph unicode="_" glyph-name="underscore" horiz-adv-x="1052" d="M0 -328V-250H1053V-328H0Z" />
<glyph unicode="`" glyph-name="grave" horiz-adv-x="1024" d="M489 1208L272 1509H410L608 1208H489Z" />
<glyph unicode="a" glyph-name="a" horiz-adv-x="1073" d="M778 0V98Q716 36 650 12T477 -12Q366 -12 300 8T186 78Q115 149 115 270Q115 405 206 480T459 555H778V666Q778 787 713 847T500 907Q396 907 336 879T227 782L152 848Q213 933 293 966T500 999Q883
999 883 676V0H778ZM778 471H471Q219 471 219 272Q219 173 281 127T477 80Q558 80 616 95T723 156Q778 207 778 344V471Z" />
<glyph unicode="b" glyph-name="b" horiz-adv-x="1105" d="M965 494Q965 201 838 74Q750 -12 596 -12Q502 -12 434 17T303 127V0H199V1458H303V860Q365 941 433 970T596 999Q752 999 838 913Q965 786 965 494ZM860 494Q860 550 856 596T842 691T811 777T762 844T686
891T582 907Q512 907 461 883T379 822T332 727T309 616T303 494Q303 425 308 371T331 261T379 166T460 104T582 80T703 104T784 166T831 260T854 371T860 494Z" />
<glyph unicode="c" glyph-name="c" horiz-adv-x="1009" d="M901 139Q824 54 752 21T575 -12Q373 -12 257 123T141 494Q141 729 257 864T575 999Q680 999 752 967T901 848L829 782Q767 853 711 880T575 907Q402 907 313 776Q276 723 261 659T246 494Q246 393 261
329T313 211Q402 80 575 80Q653 80 709 108T829 205L901 139Z" />
<glyph unicode="d" glyph-name="d" horiz-adv-x="1105" d="M803 0V127Q741 46 673 17T510 -12Q434 -12 371 11T268 74Q141 201 141 494Q141 786 268 913Q307 953 370 976T510 999Q604 999 672 970T803 860V1458H907V0H803ZM803 494Q803 562 798 616T775 727T727
821T646 883T524 907Q466 907 420 891T345 845T295 778T265 692T250 596T246 494Q246 425 251 371T274 261T321 166T402 104T524 80T645 104T727 166T774 260T797 371T803 494Z" />
<glyph unicode="e" glyph-name="e" horiz-adv-x="1071" d="M246 471Q246 281 327 182T567 82Q653 82 714 109T840 201L918 139Q838 60 759 24T561 -12Q357 -12 249 117T141 494Q141 733 246 866T537 999T827 872T932 518V471H246ZM827 555Q822 634 817 667T793
741Q761 819 692 863T537 907Q450 907 382 863T281 741Q263 693 257 659T246 555H827Z" />
<glyph unicode="f" glyph-name="f" horiz-adv-x="622" d="M334 909V0H229V909H94V987H229V1200Q229 1316 291 1387T467 1458H557V1366H485Q334 1366 334 1202V987H557V909H334Z" />
<glyph unicode="g" glyph-name="g" horiz-adv-x="1105" d="M907 -55Q907 -245 800 -364T504 -483Q397 -483 328 -454T178 -352L248 -283Q313 -343 365 -367T504 -391Q653 -391 728 -298T803 -49V127Q741 46 673 17T510 -12Q434 -12 371 11T268 74Q141 201 141
494Q141 786 268 913Q307 953 370 976T510 999Q604 999 672 970T803 860V987H907V-55ZM803 494Q803 562 798 616T775 727T727 821T646 883T524 907Q466 907 420 891T345 845T295 778T265 692T250 596T246 494Q246 425 251 371T274 261T321 166T402 104T524 80T645
104T727 166T774 260T797 371T803 494Z" />
<glyph unicode="h" glyph-name="h" horiz-adv-x="1144" d="M854 0V612Q854 756 785 831T582 907Q448 907 376 831T303 612V0H199V1458H303V870Q414 999 594 999Q764 999 861 901T958 631V0H854Z" />
<glyph unicode="i" glyph-name="i" horiz-adv-x="501" d="M199 0V987H303V0H199ZM186 1329V1458H315V1329H186Z" />
<glyph unicode="j" glyph-name="j" horiz-adv-x="501" d="M303 -215Q303 -335 244 -403T66 -471H-25V-379H47Q132 -379 165 -340T199 -213V987H303V-215ZM186 1329V1458H315V1329H186Z" />
<glyph unicode="k" glyph-name="k" horiz-adv-x="1079" d="M868 0L528 543L303 283V0H199V1458H303V430L793 987H926L600 618L997 0H868Z" />
<glyph unicode="l" glyph-name="l" horiz-adv-x="587" d="M432 0Q314 0 255 67T195 256V1458H299V258Q299 170 332 131T451 92H522V0H432Z" />
<glyph unicode="m" glyph-name="m" horiz-adv-x="1798" d="M1509 0V612Q1509 756 1440 831T1237 907Q1108 907 1033 833T958 631V0H854V612Q854 756 785 831T582 907Q448 907 376 831T303 612V0H199V987H303V870Q414 999 596 999Q706 999 787 953T913 819Q1027
999 1249 999Q1410 999 1509 905Q1612 807 1612 631V0H1509Z" />
<glyph unicode="n" glyph-name="n" horiz-adv-x="1144" d="M854 0V612Q854 756 785 831T582 907Q448 907 376 831T303 612V0H199V987H303V870Q414 999 594 999Q761 999 856 905Q958 808 958 631V0H854Z" />
<glyph unicode="o" glyph-name="o" horiz-adv-x="1077" d="M936 494Q936 367 911 268T813 96Q703 -12 539 -12Q374 -12 264 96Q193 168 167 268T141 494Q141 619 167 719T264 891Q372 999 539 999Q705 999 813 891Q885 819 910 720T936 494ZM831 494Q831 605 815
686T743 823Q660 907 539 907Q416 907 334 823Q279 768 263 687T246 494Q246 382 262 301T334 164Q418 80 539 80Q659 80 743 164Q798 219 814 300T831 494Z" />
<glyph unicode="p" glyph-name="p" horiz-adv-x="1105" d="M965 494Q965 201 838 74Q750 -12 596 -12Q502 -12 434 17T303 127V-471H199V987H303V860Q365 941 433 970T596 999Q752 999 838 913Q965 786 965 494ZM860 494Q860 550 856 596T842 691T811 777T762
844T686 891T582 907Q512 907 461 883T379 822T332 727T309 616T303 494Q303 425 308 371T331 261T379 166T460 104T582 80T703 104T784 166T831 260T854 371T860 494Z" />
<glyph unicode="q" glyph-name="q" horiz-adv-x="1105" d="M803 -471V127Q741 46 673 17T510 -12Q434 -12 371 11T268 74Q141 201 141 494Q141 786 268 913Q307 953 370 976T510 999Q604 999 672 970T803 860V987H907V-471H803ZM803 494Q803 562 798 616T775 727T727
821T646 883T524 907Q466 907 420 891T345 845T295 778T265 692T250 596T246 494Q246 425 251 371T274 261T321 166T402 104T524 80T645 104T727 166T774 260T797 371T803 494Z" />
<glyph unicode="r" glyph-name="r" horiz-adv-x="837" d="M754 829Q709 874 669 890T567 907Q445 907 374 820T303 608V0H199V987H303V856Q345 923 423 961T592 999Q667 999 722 978T829 905L754 829Z" />
<glyph unicode="s" glyph-name="s" horiz-adv-x="1011" d="M897 281Q897 145 791 67T502 -12Q250 -12 102 129L174 201Q289 80 498 80Q795 80 795 281Q795 358 750 396T606 446L442 461Q145 485 145 719Q145 848 241 923T500 999Q707 999 846 895L776 825Q662
909 500 909Q377 909 313 860T248 719Q248 641 295 603T449 553L608 539Q675 532 723 518T813 476T876 400T897 281Z" />
<glyph unicode="t" glyph-name="t" horiz-adv-x="665" d="M461 0Q347 0 285 71T223 258V909H88V987H223V1303H328V987H551V909H328V256Q328 92 479 92H551V0H461Z" />
<glyph unicode="u" glyph-name="u" horiz-adv-x="1144" d="M842 0V117Q731 -12 551 -12Q384 -12 289 82Q186 180 186 356V987H291V375Q291 231 360 156T563 80Q697 80 769 156T842 375V987H946V0H842Z" />
<glyph unicode="v" glyph-name="v" horiz-adv-x="880" d="M492 0H389L29 987H143L440 123L737 987H852L492 0Z" />
<glyph unicode="w" glyph-name="w" horiz-adv-x="1458" d="M1114 0H1008L729 823L451 0H344L29 987H143L395 123L678 987H780L1063 123L1315 987H1430L1114 0Z" />
<glyph unicode="x" glyph-name="x" horiz-adv-x="942" d="M733 0L473 416L209 0H82L416 504L96 987H223L473 590L719 987H846L526 504L860 0H733Z" />
<glyph unicode="y" glyph-name="y" horiz-adv-x="880" d="M393 -268Q367 -347 326 -383Q259 -446 139 -446H90V-354H129Q185 -354 218 -340T271 -299T309 -219L389 0L29 987H143L440 123L737 987H852L393 -268Z" />
<glyph unicode="z" glyph-name="z" horiz-adv-x="925" d="M111 0V98L705 895H143V987H815V889L219 92H815V0H111Z" />
<glyph unicode="{" glyph-name="braceleft" horiz-adv-x="647" d="M516 -152Q440 -152 394 -139T317 -96Q288 -66 276 -25T264 98V522Q264 609 227 645Q190 684 139 684H102V774H139Q188 774 227 813Q264 850 264 936V1360Q264 1442 276 1483T317 1554Q347 1584
393 1597T516 1610H545V1518H518Q462 1518 438 1513T397 1491Q381 1474 375 1445T369 1358V934Q369 855 340 809T244 729Q311 696 340 650T369 524V100Q369 -4 397 -33Q414 -49 437 -54T518 -59H545V-152H516Z" />
<glyph unicode="|" glyph-name="bar" horiz-adv-x="649" d="M272 -152V1610H377V-152H272Z" />
<glyph unicode="}" glyph-name="braceright" horiz-adv-x="647" d="M508 684Q457 684 420 645Q383 609 383 522V98Q383 16 372 -25T330 -96T254 -139T131 -152H102V-59H129Q186 -59 209 -54T250 -33Q279 -3 279 100V524Q279 603 307 649T403 729Q336 762 308 808T279
934V1358Q279 1461 250 1491Q233 1507 209 1512T129 1518H102V1610H131Q207 1610 253 1597T330 1554Q360 1525 371 1484T383 1360V936Q383 850 420 813Q459 774 508 774H545V684H508Z" />
<glyph unicode="~" glyph-name="asciitilde" horiz-adv-x="1052" d="M944 567Q865 488 818 464T707 440Q693 440 679 441T648 447T620 455T589 466T561 477T528 491T498 504Q490 507 466 517T433 531T405 541T373 549T342 551Q296 551 264 535T172 459L109 522Q188
601 235 625T346 649Q366 649 385 646T429 635T467 622T513 604T555 586Q560 584 575 577T595 568T614 561T633 553T651 548T671 543T690 540T711 539Q758 539 790 555T881 631L944 567Z" />
</font>
</defs>
</svg>
